<svg width="174" height="32" viewBox="0 0 174 32" fill="none" xmlns="http://www.w3.org/2000/svg">
<path d="M27.1333 2.5821H11.1338C11.0411 2.5821 10.9491 2.60051 10.8635 2.63644C10.7779 2.67226 10.7001 2.72481 10.6347 2.79106L10.5479 2.87998L5.82696 7.6207L2.12428 11.3646C2.05725 11.4329 2.00448 11.514 1.96922 11.6032C1.93138 11.6914 1.91083 11.7863 1.90881 11.8824V25.0125C1.90915 25.0982 1.9425 25.1804 2.00178 25.2418C2.03075 25.272 2.06544 25.2959 2.10373 25.3123C2.14213 25.3286 2.18334 25.337 2.225 25.337H8.0262C8.0682 25.3372 8.10963 25.3289 8.14825 25.3125C8.18688 25.2963 8.2218 25.2721 8.25099 25.2418C8.31027 25.1804 8.34362 25.0982 8.34396 25.0125V10.4597V9.52375L8.52215 9.34758L9.33124 8.53017L11.4422 6.42581H24.0413C24.0413 7.04975 24.0413 7.63473 24.0413 8.26957C24.0388 8.33144 24.0159 8.39072 23.9761 8.4381C23.8212 8.61596 23.6553 8.78123 23.4988 8.95908C23.4727 8.98985 23.4395 9.01388 23.4025 9.02926C23.3653 9.04475 23.325 9.05116 23.2849 9.04801H13.9158H12.2667L11.0268 10.2523V12.5314V15.4563H24.046C24.046 16.0803 24.046 16.6652 24.046 17.2986C24.0434 17.3609 24.0205 17.4207 23.9808 17.4686C23.8258 17.6449 23.6599 17.8119 23.5034 17.9881C23.4776 18.0192 23.4447 18.0437 23.4074 18.0595C23.3703 18.0753 23.3298 18.0818 23.2895 18.0785H11.0361V29.7064C11.0361 29.7374 11.0613 29.7626 11.0923 29.7626H17.9657C18.0594 29.7635 18.1522 29.7448 18.2385 29.708C18.325 29.6721 18.4036 29.6191 18.4694 29.5519L27.2387 20.5635C27.3047 20.4938 27.3572 20.4124 27.3937 20.3234C27.4306 20.2344 27.4495 20.1389 27.4495 20.0425V2.89402C27.4495 2.85259 27.4412 2.81149 27.4253 2.7732C27.4093 2.73492 27.386 2.70022 27.3566 2.67114C27.327 2.64217 27.2921 2.61927 27.2538 2.604C27.2155 2.58873 27.1746 2.5812 27.1333 2.5821Z" fill="#41FF88"/>
<path fill-rule="evenodd" clip-rule="evenodd" d="M151.555 8.99411C151.541 8.78089 151.452 8.57946 151.305 8.4244C150.92 8.03018 150.523 7.63428 150.126 7.23849C149.782 6.8939 149.451 6.55111 149.119 6.21483C149.026 6.11299 148.913 6.03181 148.786 5.97634C148.655 5.92032 148.513 5.89438 148.37 5.90022H134.879V23.1919L135.076 23.2101H135.117C135.16 23.2158 135.204 23.2192 135.248 23.2201C139.661 23.2288 144.077 23.2288 148.495 23.2201H148.509C148.705 23.206 148.888 23.1246 149.029 22.9898C149.804 22.2323 150.568 21.4688 151.322 20.6992C151.464 20.5487 151.547 20.3515 151.555 20.1443C151.568 16.4309 151.568 12.718 151.555 9.00568V8.99411ZM147.791 20.3944C147.741 20.43 147.685 20.4534 147.624 20.4624H138.148V8.68108C138.193 8.68108 138.237 8.68108 138.283 8.68108H147.523C147.721 8.70263 147.903 8.79785 148.033 8.94774C148.182 9.08327 148.277 9.26909 148.297 9.46951V19.707C148.29 19.7807 148.268 19.852 148.231 19.9158C148.178 20.0138 148.114 20.1045 148.038 20.1857C147.966 20.2662 147.883 20.3364 147.791 20.3944Z" fill="white"/>
<path fill-rule="evenodd" clip-rule="evenodd" d="M64.2017 17.8339C64.3819 17.8555 64.5646 17.8315 64.733 17.7644C64.9015 17.6973 65.0505 17.589 65.1663 17.4497C65.4983 17.1035 65.8386 16.7623 66.1823 16.4228L66.2603 16.345C66.5791 16.027 66.8978 15.7089 67.2133 15.386C67.3562 15.2279 67.44 15.0254 67.4506 14.8129V14.8029C67.465 12.8817 67.465 10.9603 67.4506 9.03908C67.4418 8.81486 67.3542 8.60085 67.2033 8.43445C66.4661 7.66151 65.7147 6.90788 64.9488 6.17368C64.7746 6.01548 64.55 5.92386 64.3146 5.91521C59.9782 5.90533 55.6452 5.90039 51.3156 5.90039C51.2509 5.90039 51.1894 5.90039 51.1362 5.90039C51.0799 5.90039 51.0317 5.90039 50.9869 5.90039H50.771V23.2087H54.0332V17.8257H56.223C57.5799 17.8257 58.9357 17.8257 60.2904 17.8257H60.3004C60.3653 17.8222 60.4301 17.8359 60.488 17.8655C60.5451 17.8952 60.5933 17.9399 60.6274 17.9946C61.8272 19.6487 63.0258 21.2934 64.2233 22.9288C64.3277 23.0803 64.4863 23.1865 64.6665 23.2252H64.6882H64.7097C65.3024 23.2252 65.8983 23.2252 66.4911 23.2252H67.3743C67.4153 23.2242 67.4556 23.214 67.4922 23.1954C67.5102 23.1852 67.5274 23.1737 67.5436 23.1606L67.5568 23.1506L67.7445 23.0265L63.9743 17.8257C64.049 17.8257 64.1187 17.8257 64.2017 17.8339ZM63.5609 15.3148H54.1362H54.0515V8.68956H54.1843H63.4231C63.6224 8.71066 63.8068 8.80453 63.9411 8.95296C64.0898 9.08635 64.1844 9.26971 64.2067 9.468V14.6688C64.1839 14.8313 64.1039 14.9805 63.9809 15.0894C63.8731 15.2132 63.7237 15.2932 63.5609 15.3148Z" fill="white"/>
<path fill-rule="evenodd" clip-rule="evenodd" d="M47.9753 9.04755C47.9633 8.81378 47.8706 8.59147 47.713 8.41811C46.9759 7.65954 46.2266 6.91152 45.4651 6.17384C45.3085 6.02114 45.1026 5.92895 44.8841 5.91379H44.8725C41.3762 5.90504 37.8805 5.90504 34.3853 5.91379C34.1826 5.92064 33.9888 5.998 33.8375 6.1324C33.0626 6.88446 32.2979 7.64741 31.5431 8.42147C31.3968 8.57979 31.311 8.78436 31.3007 8.99949V9.00949C31.2907 12.7096 31.2907 16.4115 31.3007 20.1149V20.1231C31.3104 20.3376 31.3956 20.5417 31.5414 20.6996C32.2852 21.4659 33.0427 22.2217 33.8142 22.9671C33.9705 23.1115 34.1725 23.1969 34.3853 23.2088H34.3968C37.892 23.2188 41.3878 23.2188 44.8841 23.2088H44.8958C45.1092 23.1982 45.3121 23.1125 45.4685 22.9671C46.2321 22.2317 46.9819 21.483 47.7179 20.7211C47.8754 20.5485 47.9675 20.3265 47.9787 20.0934C47.9875 18.256 47.9902 16.4202 47.987 14.5862V13.4268C47.987 11.9692 47.987 10.5117 47.9787 9.05417L47.9753 9.04755ZM44.7314 19.6893C44.705 19.8807 44.6115 20.0568 44.4674 20.1861C44.3401 20.3333 44.1627 20.4283 43.9693 20.4528H35.3116C35.1284 20.4193 34.9594 20.3316 34.8267 20.2011C34.6941 20.0705 34.6039 19.9032 34.5679 19.7207V9.4119C34.5915 9.22428 34.683 9.0517 34.8252 8.92662C34.9542 8.78347 35.1315 8.69263 35.3233 8.67152H43.986C44.1793 8.696 44.3567 8.79099 44.484 8.93819C44.6301 9.07001 44.7239 9.24999 44.748 9.44502V14.1406L44.7314 19.6893Z" fill="white"/>
<path fill-rule="evenodd" clip-rule="evenodd" d="M170.369 21.268C170.369 21.0759 170.369 20.8821 170.369 20.6883V20.4763H158.333V15.8553H167.924V13.3277H158.328V8.67514H169.354C169.47 8.67233 169.582 8.64527 169.686 8.59564C169.793 8.54849 169.894 8.48909 169.987 8.41847C170.081 8.34851 170.164 8.26666 170.236 8.17493C170.313 8.0805 170.358 7.96485 170.367 7.8437C170.377 7.4661 170.367 7.08513 170.367 6.70585C170.367 6.51699 170.367 6.32825 170.367 6.14265V5.93066H155.044V23.1975L155.239 23.2158H155.288C155.337 23.2221 155.386 23.226 155.436 23.2274H169.43C169.539 23.2214 169.646 23.1903 169.741 23.1363C169.84 23.0846 169.933 23.0218 170.019 22.9492C170.106 22.8786 170.184 22.7974 170.251 22.7073C170.323 22.6174 170.365 22.5074 170.373 22.3926C170.369 22.0282 170.369 21.6506 170.369 21.268Z" fill="white"/>
<path fill-rule="evenodd" clip-rule="evenodd" d="M131.39 6.28948C131.39 6.23323 131.382 6.18349 131.382 6.13555V5.92188H128.126L128.136 6.5959V19.6475C128.115 19.8549 128.021 20.0484 127.873 20.1958C127.726 20.3431 127.532 20.4355 127.324 20.4575H118.758C118.554 20.4444 118.362 20.353 118.224 20.2024C118.072 20.0624 117.98 19.8696 117.968 19.6641V5.93838H114.728L114.715 6.1388C114.715 6.16418 114.715 6.19068 114.715 6.2183C114.715 6.2796 114.705 6.34259 114.705 6.39885C114.705 10.989 114.705 15.578 114.705 20.166V20.1776C114.716 20.3816 114.799 20.5752 114.94 20.7242C115.683 21.4894 116.441 22.2447 117.212 22.99C117.36 23.1306 117.555 23.2139 117.759 23.2251H117.768C121.278 23.2351 124.787 23.2351 128.294 23.2251H128.31C128.522 23.2086 128.722 23.1177 128.874 22.9684C129.271 22.5809 129.673 22.18 130.074 21.7809C130.417 21.4381 130.761 21.0952 131.101 20.7622C131.198 20.6751 131.274 20.5675 131.323 20.4475C131.373 20.3281 131.396 20.1993 131.392 20.0699V6.47171C131.392 6.40884 131.392 6.34753 131.392 6.29285L131.39 6.28948Z" fill="white"/>
<path fill-rule="evenodd" clip-rule="evenodd" d="M86.8046 6.1375V5.92383H70.4969V8.68649H77.0097V23.2189H80.2802V8.67493H85.8019C85.9121 8.66999 86.02 8.64237 86.119 8.59375C86.2223 8.5448 86.3208 8.48596 86.4128 8.41814C86.5047 8.35021 86.5878 8.27117 86.6602 8.18303C86.738 8.09455 86.7857 7.98384 86.7963 7.86662C86.8129 7.45421 86.8097 7.03844 86.8063 6.62109C86.8046 6.45873 86.8046 6.29817 86.8046 6.1375Z" fill="white"/>
<path fill-rule="evenodd" clip-rule="evenodd" d="M111.932 6.14531V5.93164H95.6102V8.67949H102.126V23.2134H105.396V8.67443H110.919C111.034 8.67039 111.148 8.64098 111.251 8.58832C111.357 8.53824 111.458 8.47603 111.55 8.40283C111.642 8.33243 111.726 8.25069 111.798 8.1594C111.877 8.06554 111.924 7.94977 111.933 7.82806C111.933 7.45046 111.933 7.07118 111.933 6.69515C111.932 6.51471 111.932 6.32911 111.932 6.14531Z" fill="white"/>
<path d="M92.8096 5.92676H89.5739V23.23H92.8096V5.92676Z" fill="white"/>
</svg>
